<svg width="133" height="36" viewBox="0 0 133 36" fill="none" xmlns="http://www.w3.org/2000/svg">
<g clip-path="url(#clip0_9_6667)">
<path d="M14.4628 0H0.0722046V34.4155L14.4628 0Z" fill="#FA0C00"/>
<path d="M24.5877 0H38.9596V34.4155L24.5877 0Z" fill="#FA0C00"/>
<path d="M19.5254 12.6843L28.6848 34.4155H22.6754L19.9378 27.4967H13.2347L19.5254 12.6843Z" fill="#FA0C00"/>
<path d="M62.4374 21.8858L64.1344 26.7515C64.1906 26.8734 64.2751 26.9296 64.4251 26.9296H67.6874C67.8657 26.9296 67.8938 26.8451 67.8657 26.667L61.1251 7.94522C61.0968 7.79522 61.0687 7.76709 60.9187 7.76709H56.8687C56.7564 7.76709 56.6906 7.85145 56.6906 7.97335C56.6344 8.95771 56.55 9.25771 56.428 9.54835L50.4187 26.6389C50.3906 26.8451 50.4564 26.9296 50.6251 26.9296H53.5406C53.7187 26.9296 53.8032 26.8734 53.8687 26.6951L55.4719 21.8858H62.4374ZM56.4 18.7077C57.2812 16.0452 58.4438 12.6327 58.9125 10.6827H58.9406C59.5219 12.7264 60.8906 16.7764 61.5093 18.7077H56.4Z" fill="#FA0C00"/>
<path d="M76.5312 27.2203C78.2844 27.2203 80.1499 26.9016 82.0437 26.0858C82.1937 26.0297 82.2218 25.9642 82.2218 25.8235C82.1656 25.2984 82.0999 24.539 82.0999 23.9578V6.33281C82.0999 6.22032 82.0999 6.16406 81.9592 6.16406H78.7812C78.6592 6.16406 78.6031 6.22032 78.6031 6.37032V12.3422C78.1063 12.2859 77.7592 12.2578 77.3469 12.2578C72.2186 12.2578 69.0686 15.6422 69.0686 19.8703C69.0686 24.7735 72.3031 27.2203 76.5312 27.2203ZM78.6031 23.9578C78.078 24.1265 77.4969 24.1922 76.9063 24.1922C74.5812 24.1922 72.678 22.8797 72.678 19.6922C72.678 16.8703 74.6373 15.2016 77.2344 15.2016C77.7592 15.2016 78.2186 15.2578 78.6031 15.4078V23.9578Z" fill="#FA0C00"/>
<path d="M92.3609 12.2578C87.9828 12.2578 85.2734 15.6141 85.2734 19.7578C85.2734 23.4609 87.4296 27.2203 92.2954 27.2203C96.4109 27.2203 99.2983 24.1922 99.2983 19.6641C99.2983 15.6703 96.8515 12.2578 92.3609 12.2578ZM92.1828 15.2016C94.6577 15.2016 95.7077 17.3297 95.7077 19.7578C95.7077 22.7578 94.1609 24.2484 92.3609 24.2484C90.139 24.2484 88.8266 22.3828 88.8266 19.6922C88.8266 16.9266 90.2234 15.2016 92.1828 15.2016Z" fill="#FA0C00"/>
<path d="M102.584 6.16406C102.462 6.16406 102.378 6.22032 102.378 6.37032V26.3203C102.378 26.4048 102.462 26.5548 102.584 26.5829C103.981 27.0142 105.444 27.2203 106.953 27.2203C111.275 27.2203 115.475 24.539 115.475 19.1391C115.475 15.2297 112.794 12.2578 108.594 12.2578C107.628 12.2578 106.728 12.4078 105.941 12.6703L105.903 6.39845C105.903 6.19219 105.847 6.16406 105.641 6.16406H102.584ZM111.884 19.4953C111.884 22.7297 109.672 24.2484 107.281 24.2484C106.784 24.2484 106.344 24.2203 105.941 24.0984V15.5859C106.4 15.4078 106.953 15.2578 107.975 15.2578C110.281 15.2578 111.884 16.7203 111.884 19.4953Z" fill="#FA0C00"/>
<path d="M127.336 20.5453C128.76 20.5453 129.932 20.5172 130.336 20.4234C130.486 20.3953 130.542 20.3391 130.57 20.2172C130.654 19.8985 130.692 19.2328 130.692 18.4172C130.692 15.6422 129.023 12.2578 124.71 12.2578C120.304 12.2578 117.857 15.8484 117.857 19.8984C117.857 23.4891 119.751 27.2203 125.057 27.2203C127.045 27.2203 128.329 26.9016 129.436 26.3765C129.548 26.3203 129.604 26.2265 129.604 26.0578V23.6297C129.604 23.4891 129.52 23.4609 129.436 23.5172C128.329 23.9859 127.129 24.2203 125.817 24.2203C122.845 24.2203 121.495 22.5797 121.41 20.5453H127.336ZM121.41 18.0328C121.645 16.6078 122.545 15.0609 124.56 15.0609C126.782 15.0609 127.364 16.9266 127.364 17.7703C127.364 17.7984 127.364 17.9203 127.364 18.0047C127.242 18.0328 126.867 18.0328 125.76 18.0328H121.41Z" fill="#FA0C00"/>
</g>
<defs>
<clipPath id="clip0_9_6667">
<rect width="132" height="36" fill="white" transform="translate(0.0722046)"/>
</clipPath>
</defs>
</svg>
