<svg width="120" height="36" viewBox="0 0 120 36" fill="none" xmlns="http://www.w3.org/2000/svg">
<g clip-path="url(#clip0_9_6707)">
<path d="M74.0514 28.1244C67.1285 33.2271 57.094 35.9496 48.4546 35.9496C36.3408 35.9496 25.4352 31.4692 17.1846 24.0172C16.5364 23.4313 17.1172 22.6326 17.895 23.0889C26.799 28.2696 37.8083 31.3861 49.1806 31.3861C56.8503 31.3861 65.2876 29.7994 73.0454 26.5064C74.2174 26.0085 75.1975 27.2738 74.0514 28.1244Z" fill="#FF9900"/>
<path d="M76.9296 24.8314C76.048 23.7009 71.08 24.2973 68.8502 24.5617C68.1709 24.6448 68.0671 24.0536 68.6791 23.6283C72.6357 20.8437 79.1284 21.6473 79.8854 22.5808C80.6426 23.5195 79.6884 30.0276 75.9703 33.1339C75.3998 33.611 74.8553 33.3568 75.1095 32.7241C75.9444 30.6394 77.8164 25.9671 76.9296 24.8314Z" fill="#FF9900"/>
<path d="M69.0057 3.96912V1.26215C69.0057 0.852481 69.3168 0.577637 69.6902 0.577637H81.8094C82.1983 0.577637 82.5094 0.857667 82.5094 1.26215V3.58018C82.5043 3.96912 82.1775 4.47731 81.5968 5.2811L75.3167 14.2473C77.6504 14.1902 80.1136 14.5377 82.2293 15.7304C82.7064 16 82.8362 16.3942 82.8724 16.7831V19.6716C82.8724 20.0657 82.4368 20.5271 81.9805 20.2886C78.2519 18.3336 73.2995 18.121 69.1768 20.3094C68.7568 20.5376 68.3159 20.0813 68.3159 19.6871V16.9439C68.3159 16.5031 68.3213 15.7511 68.762 15.0822L76.0375 4.64845H69.7059C69.3168 4.64845 69.0057 4.37361 69.0057 3.96912Z" fill="#221F1F"/>
<path d="M24.7973 20.8591H21.1102C20.7575 20.8332 20.4775 20.5687 20.4515 20.2317V1.30886C20.4515 0.930304 20.7678 0.629528 21.162 0.629528H24.6002C24.9579 0.645075 25.2431 0.919929 25.2692 1.26219V3.7358H25.3365C26.2337 1.34516 27.919 0.230225 30.1903 0.230225C32.4981 0.230225 33.9397 1.34516 34.9767 3.7358C35.8688 1.34516 37.8965 0.230225 40.0692 0.230225C41.6146 0.230225 43.3052 0.868071 44.3371 2.29934C45.504 3.89137 45.2654 6.20421 45.2654 8.23184L45.2601 20.1747C45.2601 20.5531 44.9438 20.8591 44.5498 20.8591H40.8679C40.4996 20.8332 40.2041 20.5377 40.2041 20.1747V10.1454C40.2041 9.34678 40.2767 7.35544 40.1004 6.59833C39.8255 5.32781 39.001 4.97001 37.9327 4.97001C37.0408 4.97001 36.1074 5.56636 35.7288 6.52054C35.3502 7.47472 35.3866 9.07193 35.3866 10.1454V20.1747C35.3866 20.5531 35.0701 20.8591 34.6761 20.8591H30.9942C30.6207 20.8332 30.3304 20.5377 30.3304 20.1747L30.3252 10.1454C30.3252 8.03477 30.6726 4.92851 28.0539 4.92851C25.4039 4.92851 25.5076 7.957 25.5076 10.1454V20.1747C25.5076 20.5531 25.1913 20.8591 24.7973 20.8591Z" fill="#221F1F"/>
<path d="M92.9431 0.230225C98.4141 0.230225 101.375 4.92851 101.375 10.9025C101.375 16.6742 98.103 21.2533 92.9431 21.2533C87.5708 21.2533 84.6459 16.555 84.6459 10.7003C84.6459 4.80923 87.607 0.230225 92.9431 0.230225ZM92.9743 4.0936C90.2569 4.0936 90.0858 7.79622 90.0858 10.1039C90.0858 12.4167 90.0494 17.3536 92.9431 17.3536C95.8005 17.3536 95.9352 13.3709 95.9352 10.944C95.9352 9.34678 95.868 7.43842 95.3855 5.92418C94.9708 4.607 94.1463 4.0936 92.9743 4.0936Z" fill="#221F1F"/>
<path d="M108.469 20.8591H104.798C104.43 20.8332 104.134 20.5377 104.134 20.1747L104.129 1.24663C104.16 0.899186 104.466 0.629528 104.839 0.629528H108.257C108.578 0.645075 108.843 0.862887 108.915 1.15847V4.05213H108.983C110.015 1.46444 111.462 0.230225 114.008 0.230225C115.662 0.230225 117.275 0.826586 118.312 2.46009C119.277 3.97433 119.277 6.52054 119.277 8.3511V20.2627C119.235 20.5946 118.929 20.8591 118.566 20.8591H114.869C114.531 20.8332 114.251 20.5844 114.215 20.2627V9.98463C114.215 7.9155 114.454 4.88703 111.907 4.88703C111.01 4.88703 110.186 5.48858 109.776 6.40126C109.258 7.55769 109.19 8.70892 109.19 9.98463V20.1747C109.185 20.5531 108.863 20.8591 108.469 20.8591Z" fill="#221F1F"/>
<path d="M11.0084 11.8202V11.0216C8.34289 11.0216 5.52704 11.5921 5.52704 14.7346C5.52704 16.3267 6.35157 17.4053 7.76728 17.4053C8.80442 17.4053 9.73267 16.7674 10.3187 15.7303C11.0447 14.4546 11.0084 13.2567 11.0084 11.8202ZM14.7266 20.8071C14.4828 21.0249 14.1302 21.0405 13.8553 20.8953C12.6315 19.8788 12.4137 19.407 11.7396 18.4372C9.71712 20.5011 8.28586 21.1183 5.66186 21.1183C2.56077 21.1183 0.144226 19.2047 0.144226 15.3725C0.144226 12.3803 1.76736 10.3423 4.07503 9.34663C6.07673 8.46505 8.87185 8.30948 11.0084 8.06575V7.58867C11.0084 6.71226 11.0758 5.67513 10.5624 4.918C10.1112 4.23867 9.2504 3.95864 8.49328 3.95864C7.08795 3.95864 5.833 4.67945 5.52704 6.17296C5.46481 6.50485 5.22107 6.83154 4.88918 6.84711L1.31102 6.46335C1.01024 6.39594 0.678357 6.15221 0.761329 5.69068C1.58586 1.3554 5.5011 0.048584 9.00667 0.048584C10.8009 0.048584 13.1449 0.525672 14.5606 1.88434C16.3549 3.55934 16.1837 5.7944 16.1837 8.22652V13.9723C16.1837 15.6992 16.8994 16.4563 17.5735 17.3897C17.8121 17.7216 17.8639 18.1209 17.5632 18.3698C16.8112 18.9973 15.4733 20.1641 14.7369 20.8176L14.7266 20.8071Z" fill="#221F1F"/>
<path d="M58.8045 11.8202V11.0216C56.1391 11.0216 53.3232 11.5921 53.3232 14.7346C53.3232 16.3267 54.1478 17.4053 55.5635 17.4053C56.6005 17.4053 57.5288 16.7674 58.1147 15.7303C58.8409 14.4546 58.8045 13.2567 58.8045 11.8202ZM62.5227 20.8071C62.279 21.0249 61.9264 21.0405 61.6514 20.8953C60.4276 19.8788 60.2098 19.407 59.5357 18.4372C57.5132 20.5011 56.0819 21.1183 53.4581 21.1183C50.3569 21.1183 47.9404 19.2047 47.9404 15.3725C47.9404 12.3803 49.5635 10.3423 51.8711 9.34663C53.8729 8.46505 56.668 8.30948 58.8045 8.06575V7.58867C58.8045 6.71226 58.8719 5.67513 58.3586 4.918C57.9074 4.23867 57.0466 3.95864 56.2894 3.95864C54.884 3.95864 53.6292 4.67945 53.3232 6.17296C53.2609 6.50485 53.0172 6.83154 52.6852 6.84711L49.1072 6.46335C48.8063 6.39594 48.4744 6.15221 48.5575 5.69068C49.382 1.3554 53.2972 0.048584 56.8029 0.048584C58.5972 0.048584 60.9411 0.525672 62.3568 1.88434C64.1511 3.55934 63.9799 5.7944 63.9799 8.22652V13.9723C63.9799 15.6992 64.6956 16.4563 65.3697 17.3897C65.6083 17.7216 65.6601 18.1209 65.3592 18.3698C64.6074 18.9973 63.2694 20.1641 62.533 20.8176L62.5227 20.8071Z" fill="#221F1F"/>
</g>
<defs>
<clipPath id="clip0_9_6707">
<rect width="119.275" height="36" fill="white" transform="translate(0.0722046)"/>
</clipPath>
</defs>
</svg>
