<svg width="216" height="36" viewBox="0 0 216 36" fill="none" xmlns="http://www.w3.org/2000/svg">
<g clip-path="url(#clip0_9_6787)">
<path fill-rule="evenodd" clip-rule="evenodd" d="M18.4571 36V29.0291C25.8989 29.0291 31.6202 21.7161 28.7811 13.9326C27.7487 11.0673 25.4258 8.75788 22.5436 7.73148C14.7146 4.9089 7.35869 10.6396 7.35869 17.9954H0.346924C0.346924 6.23466 11.7894 -2.96009 24.1784 0.888875C29.5984 2.55677 33.9002 6.87616 35.6208 12.2648C39.4923 24.6241 30.2867 36 18.4571 36Z" fill="#0069FF"/>
<path fill-rule="evenodd" clip-rule="evenodd" d="M18.4558 29.0718H11.4871V22.1436H18.4558V29.0718Z" fill="#0069FF"/>
<path fill-rule="evenodd" clip-rule="evenodd" d="M11.4875 34.4176H6.11035V29.0718H11.4875V34.4176Z" fill="#0069FF"/>
<path fill-rule="evenodd" clip-rule="evenodd" d="M6.11173 29.072H1.59497V24.6243H6.06872V29.072H6.11173Z" fill="#0069FF"/>
<path fill-rule="evenodd" clip-rule="evenodd" d="M64.7445 10.4684C62.6797 9.05711 60.0987 8.33008 57.0875 8.33008H50.5489V29.0289H57.0875C60.0987 29.0289 62.6797 28.2592 64.7445 26.7624C65.863 25.9498 66.7664 24.8378 67.3686 23.4266C67.9708 22.0153 68.3149 20.3901 68.3149 18.5512C68.3149 16.7123 68.0139 15.0871 67.3686 13.7187C66.7664 12.3074 65.906 11.1954 64.7445 10.4684ZM54.3793 11.7942H56.4441C58.7241 11.7942 60.6169 12.222 62.0364 13.1201C63.6281 14.0609 64.4454 15.8998 64.4454 18.5086C64.4454 21.2028 63.6281 23.0846 62.0364 24.111C60.6599 25.0091 58.8101 25.4795 56.4872 25.4795H54.4224V11.7942H54.3793Z" fill="#0069FF"/>
<path fill-rule="evenodd" clip-rule="evenodd" d="M72.9184 8.03076C72.2732 8.03076 71.757 8.24459 71.3268 8.67225C70.8967 9.09992 70.6385 9.61311 70.6385 10.2546C70.6385 10.8961 70.8536 11.4093 71.2838 11.8797C71.714 12.3074 72.2732 12.5212 72.9184 12.5212C73.5637 12.5212 74.0799 12.3074 74.553 11.8797C74.9832 11.4521 75.1983 10.8961 75.1983 10.2546C75.1983 9.61311 74.9832 9.09992 74.553 8.67225C74.0799 8.28735 73.5206 8.03076 72.9184 8.03076Z" fill="#0069FF"/>
<path d="M74.7247 14.4028H71.0253V28.9861H74.7247V14.4028Z" fill="#0069FF"/>
<path fill-rule="evenodd" clip-rule="evenodd" d="M88.0997 15.6431C86.9814 14.6595 85.7339 14.1035 84.4003 14.1035C82.3785 14.1035 80.6579 14.7877 79.3674 16.1991C78.0338 17.5676 77.3885 19.3209 77.3885 21.4166C77.3885 23.4693 78.0338 25.2227 79.3243 26.634C80.6148 28.0026 82.3355 28.6868 84.3573 28.6868C85.7768 28.6868 86.9814 28.3019 88.0138 27.5321V27.8742C88.0138 29.0716 87.6696 30.0126 87.0673 30.6541C86.4221 31.2955 85.5188 31.6377 84.4434 31.6377C82.7227 31.6377 81.6903 30.9534 80.3567 29.2428L77.8618 31.6377L77.9477 31.7232C78.507 32.493 79.3243 33.2201 80.3998 33.9043C81.4752 34.5885 82.8947 34.9734 84.4863 34.9734C86.6802 34.9734 88.4439 34.2892 89.7343 32.9635C91.0249 31.6377 91.7132 29.8415 91.7132 27.6604V14.4029H88.0997V15.6431ZM87.1113 24.2392C86.466 24.9663 85.6487 25.3084 84.5733 25.3084C83.4978 25.3084 82.6805 24.9663 82.0783 24.2392C81.433 23.5122 81.1319 22.5714 81.1319 21.3739C81.1319 20.1764 81.433 19.2355 82.0783 18.5086C82.7236 17.7815 83.5409 17.4394 84.5733 17.4394C85.6487 17.4394 86.466 17.7815 87.1113 18.5086C87.7565 19.2355 88.0577 20.2192 88.0577 21.3739C88.1006 22.5714 87.7565 23.5122 87.1113 24.2392Z" fill="#0069FF"/>
<path d="M98.554 14.4028H94.8546V28.9861H98.554V14.4028Z" fill="#0069FF"/>
<path fill-rule="evenodd" clip-rule="evenodd" d="M96.75 8.03076C96.1048 8.03076 95.5885 8.24459 95.1583 8.67225C94.7282 9.09992 94.47 9.61311 94.47 10.2546C94.47 10.8961 94.6851 11.4093 95.1153 11.8797C95.5455 12.3074 96.1048 12.5212 96.75 12.5212C97.3953 12.5212 97.9114 12.3074 98.3846 11.8797C98.8148 11.4521 99.0299 10.8961 99.0299 10.2546C99.0299 9.61311 98.8148 9.09992 98.3846 8.67225C97.9114 8.28735 97.3953 8.03076 96.75 8.03076Z" fill="#0069FF"/>
<path fill-rule="evenodd" clip-rule="evenodd" d="M106.643 10.4683H103.029V14.4027H100.921V17.7385H103.029V23.7686C103.029 25.6503 103.416 27.0188 104.148 27.7886C104.922 28.5584 106.255 28.986 108.105 28.986C108.707 28.986 109.31 28.986 109.912 28.9433H110.084V25.6075L108.836 25.693C107.976 25.693 107.374 25.522 107.073 25.2227C106.772 24.9233 106.643 24.2818 106.643 23.2981V17.7813H110.084V14.4455H106.643V10.4683Z" fill="#0069FF"/>
<path fill-rule="evenodd" clip-rule="evenodd" d="M127.376 8.28735H131.075V28.9863H127.376V8.28735Z" fill="#0069FF"/>
<path fill-rule="evenodd" clip-rule="evenodd" d="M168.286 23.7687C167.64 24.4957 166.952 25.1372 166.435 25.4793C165.92 25.8214 165.274 25.9498 164.543 25.9498C163.467 25.9498 162.564 25.5649 161.876 24.7523C161.187 23.9397 160.8 22.9134 160.8 21.6731C160.8 20.4329 161.144 19.4065 161.833 18.594C162.521 17.7814 163.425 17.3965 164.5 17.3965C165.704 17.3965 166.952 18.1235 168.027 19.4065L170.48 17.0971C168.888 15.0444 166.866 14.1035 164.456 14.1035C162.435 14.1035 160.672 14.8305 159.252 16.2846C157.832 17.7386 157.101 19.5348 157.101 21.7159C157.101 23.897 157.832 25.7359 159.252 27.1472C160.672 28.6013 162.435 29.3283 164.456 29.3283C167.124 29.3283 169.275 28.1736 170.737 26.078L168.286 23.7687Z" fill="#0069FF"/>
<path fill-rule="evenodd" clip-rule="evenodd" d="M183.427 16.4557C182.911 15.7287 182.18 15.13 181.319 14.7024C180.458 14.2747 179.426 14.0608 178.265 14.0608C176.2 14.0608 174.522 14.8306 173.275 16.2847C172.028 17.7815 171.425 19.6204 171.425 21.7587C171.425 23.9826 172.113 25.7788 173.446 27.1901C174.78 28.5586 176.587 29.2856 178.781 29.2856C181.276 29.2856 183.298 28.3021 184.846 26.3348L184.932 26.2493L182.524 23.9399C182.308 24.1965 181.964 24.4958 181.706 24.7952C181.362 25.1373 181.017 25.3939 180.63 25.5649C180.071 25.8215 179.469 25.9927 178.781 25.9927C177.748 25.9927 176.931 25.6933 176.286 25.0946C175.684 24.5386 175.34 23.8115 175.253 22.8707H185.018L185.062 21.545C185.062 20.6041 184.932 19.7059 184.674 18.8507C184.331 17.9526 183.942 17.1828 183.427 16.4557ZM175.383 19.8772C175.556 19.1929 175.899 18.5942 176.33 18.1665C176.846 17.6961 177.491 17.4395 178.266 17.4395C179.169 17.4395 179.856 17.6961 180.33 18.2093C180.76 18.6797 181.019 19.2357 181.061 19.9199H175.383V19.8772Z" fill="#0069FF"/>
<path fill-rule="evenodd" clip-rule="evenodd" d="M197.581 15.5148C196.463 14.5739 194.915 14.1035 192.978 14.1035C191.731 14.1035 190.613 14.3601 189.58 14.8732C188.634 15.3437 187.688 16.1563 187.085 17.2254L187.128 17.2681L189.494 19.5348C190.483 17.9952 191.559 17.4393 192.978 17.4393C193.752 17.4393 194.398 17.6531 194.871 18.038C195.344 18.4228 195.602 18.9361 195.602 19.6203V20.3474C194.699 20.0908 193.795 19.9197 192.892 19.9197C191.042 19.9197 189.58 20.3474 188.462 21.2027C187.343 22.0581 186.784 23.2983 186.784 24.8378C186.784 26.2064 187.257 27.3183 188.204 28.1308C189.15 28.9434 190.354 29.3283 191.774 29.3283C193.193 29.3283 194.484 28.7723 195.689 27.7887V28.9861H199.302V19.6203C199.258 17.8241 198.699 16.4557 197.581 15.5148ZM191.041 23.4264C191.472 23.127 192.031 22.9988 192.805 22.9988C193.709 22.9988 194.655 23.1699 195.601 23.512V24.9233C194.784 25.6503 193.709 26.0352 192.418 26.0352C191.772 26.0352 191.3 25.9069 190.956 25.6075C190.611 25.3509 190.439 25.0088 190.439 24.5383C190.439 24.068 190.611 23.683 191.041 23.4264Z" fill="#0069FF"/>
<path fill-rule="evenodd" clip-rule="evenodd" d="M213.453 15.7715C212.421 14.6168 211.001 14.0608 209.151 14.0608C207.689 14.0608 206.485 14.4885 205.625 15.3011V14.403H202.011V28.9863H205.71V20.9462C205.71 19.8343 205.969 18.979 206.485 18.3375C207 17.696 207.732 17.3966 208.679 17.3966C209.496 17.3966 210.141 17.6533 210.614 18.2091C211.088 18.7651 211.302 19.5349 211.302 20.5185V28.9435H215.001V20.5185C215.001 18.5085 214.486 16.9262 213.453 15.7715Z" fill="#0069FF"/>
<path fill-rule="evenodd" clip-rule="evenodd" d="M122.733 15.5148C121.615 14.5739 120.066 14.1035 118.131 14.1035C116.883 14.1035 115.765 14.3601 114.732 14.8732C113.786 15.3437 112.84 16.1563 112.237 17.2254L112.28 17.2681L114.646 19.5348C115.636 17.9952 116.711 17.4393 118.131 17.4393C118.905 17.4393 119.55 17.6531 120.023 18.038C120.497 18.4228 120.755 18.9361 120.755 19.6203V20.3474C119.851 20.0908 118.948 19.9197 118.044 19.9197C116.195 19.9197 114.732 20.3474 113.614 21.2027C112.495 22.0581 111.936 23.2983 111.936 24.8378C111.936 26.2064 112.409 27.3183 113.355 28.1308C114.302 28.9434 115.506 29.3283 116.926 29.3283C118.346 29.3283 119.636 28.7723 120.841 27.7887V28.9861H124.454V19.6203C124.411 17.8241 123.852 16.4557 122.733 15.5148ZM116.194 23.4264C116.625 23.127 117.184 22.9988 117.958 22.9988C118.861 22.9988 119.807 23.1699 120.753 23.512V24.9233C119.937 25.6503 118.861 26.0352 117.571 26.0352C116.925 26.0352 116.453 25.9069 116.108 25.6075C115.764 25.3509 115.592 25.0088 115.592 24.5383C115.592 24.068 115.764 23.683 116.194 23.4264Z" fill="#0069FF"/>
<path fill-rule="evenodd" clip-rule="evenodd" d="M144.411 29.2855C138.518 29.2855 133.7 24.4955 133.7 18.6365C133.7 12.7777 138.518 7.98779 144.411 7.98779C150.305 7.98779 155.122 12.7777 155.122 18.6365C155.122 24.4955 150.348 29.2855 144.411 29.2855ZM144.41 11.7087C140.582 11.7087 137.484 14.7878 137.484 18.594C137.484 22.4002 140.582 25.4795 144.41 25.4795C148.238 25.4795 151.335 22.4002 151.335 18.594C151.335 14.7878 148.238 11.7087 144.41 11.7087Z" fill="#0069FF"/>
</g>
<defs>
<clipPath id="clip0_9_6787">
<rect width="214.875" height="36" fill="white" transform="translate(0.346924)"/>
</clipPath>
</defs>
</svg>
