<svg width="37" height="36" viewBox="0 0 37 36" fill="none" xmlns="http://www.w3.org/2000/svg">
<g clip-path="url(#clip0_9_6838)">
<path fill-rule="evenodd" clip-rule="evenodd" d="M18.2219 0C8.27692 0 0.221924 8.055 0.221924 18C0.221924 25.965 5.37442 32.6925 12.5294 35.0775C13.4294 35.235 13.7669 34.695 13.7669 34.2225C13.7669 33.795 13.7444 32.3775 13.7444 30.87C9.22192 31.7025 8.05192 29.7675 7.69192 28.755C7.48942 28.2375 6.61192 26.64 5.84692 26.2125C5.21692 25.875 4.31692 25.0425 5.82442 25.02C7.24192 24.9975 8.25442 26.325 8.59192 26.865C10.2119 29.5875 12.7994 28.8225 13.8344 28.35C13.9919 27.18 14.4644 26.3925 14.9819 25.9425C10.9769 25.4925 6.79192 23.94 6.79192 17.055C6.79192 15.0975 7.48942 13.4775 8.63692 12.2175C8.45692 11.7675 7.82692 9.9225 8.81692 7.4475C8.81692 7.4475 10.3244 6.975 13.7669 9.2925C15.2069 8.8875 16.7369 8.685 18.2669 8.685C19.7969 8.685 21.3269 8.8875 22.7669 9.2925C26.2094 6.9525 27.7169 7.4475 27.7169 7.4475C28.7069 9.9225 28.0769 11.7675 27.8969 12.2175C29.0444 13.4775 29.7419 15.075 29.7419 17.055C29.7419 23.9625 25.5344 25.4925 21.5294 25.9425C22.1819 26.505 22.7444 27.585 22.7444 29.2725C22.7444 31.68 22.7219 33.615 22.7219 34.2225C22.7219 34.695 23.0594 35.2575 23.9594 35.0775C31.0694 32.6925 36.2219 25.9425 36.2219 18C36.2219 8.055 28.1669 0 18.2219 0Z" fill="#1B1F23"/>
</g>
<defs>
<clipPath id="clip0_9_6838">
<rect width="36" height="36" fill="white" transform="translate(0.221924)"/>
</clipPath>
</defs>
</svg>
