<svg width="112" height="36" viewBox="0 0 112 36" fill="none" xmlns="http://www.w3.org/2000/svg">
<g clip-path="url(#clip0_9_6656)">
<path d="M14.3613 0.00317383H15.3421C18.7472 0.0771967 22.0967 1.44662 24.5025 3.87087C23.6142 4.77765 22.7074 5.64742 21.8376 6.5542C20.4867 5.33282 18.8582 4.38903 17.0817 4.05593C14.4539 3.50076 11.6225 4.00041 9.4203 5.49937C7.01456 7.07236 5.38605 9.73719 5.03444 12.5871C4.64582 15.3999 5.44157 18.3609 7.27364 20.5445C9.03168 22.6727 11.715 24.0051 14.4909 24.0976C17.0817 24.2457 19.7835 23.4499 21.6711 21.6364C23.1515 20.3595 23.8363 18.4164 24.0583 16.5288C20.9864 16.5288 17.9144 16.5473 14.8425 16.5288V12.7166H27.778C28.4442 16.8064 27.4819 21.4143 24.3729 24.3382C22.3003 26.4108 19.4319 27.6322 16.508 27.8728C13.6766 28.1504 10.7527 27.6137 8.23593 26.2443C5.2195 24.6343 2.81376 21.914 1.62939 18.7125C0.519046 15.7701 0.500541 12.439 1.53686 9.47811C2.48065 6.77627 4.29421 4.38903 6.62594 2.72352C8.86513 1.07651 11.5855 0.169725 14.3613 0.00317383Z" fill="#3780FF"/>
<path d="M88.5692 0.965576H92.5294V27.3918C91.2155 27.3918 89.8831 27.4103 88.5692 27.3732C88.5877 18.583 88.5692 9.7743 88.5692 0.965576V0.965576Z" fill="#38B137"/>
<path d="M36.5867 10.1258C39.0294 9.66319 41.6757 10.1813 43.6929 11.6433C45.5249 12.9387 46.8018 14.9743 47.1904 17.195C47.6901 19.7673 47.0609 22.5802 45.3954 24.6158C43.6003 26.892 40.6579 28.1134 37.7895 27.9283C35.1617 27.7803 32.6079 26.4664 31.0535 24.3197C29.2954 21.951 28.8698 18.694 29.8321 15.9181C30.7944 12.9387 33.5147 10.6625 36.5867 10.1258V10.1258ZM37.1418 13.6419C36.1425 13.901 35.2172 14.4747 34.551 15.2889C32.756 17.4356 32.867 20.9332 34.8471 22.9318C35.976 24.0791 37.6785 24.6158 39.2515 24.3012C40.7134 24.0421 41.9903 23.0613 42.6936 21.7659C43.9149 19.5637 43.5633 16.5288 41.6942 14.8078C40.4914 13.6974 38.7333 13.2348 37.1418 13.6419Z" fill="#FA3913"/>
<path d="M56.2027 10.1257C58.9971 9.58906 62.0505 10.3663 64.1417 12.3279C67.5467 15.3814 67.9169 21.0996 65.0115 24.6157C63.2534 26.8364 60.4035 28.0578 57.5907 27.9282C54.9073 27.8542 52.261 26.5218 50.6695 24.3196C48.8745 21.8954 48.4858 18.5643 49.5037 15.733C50.5215 12.8461 53.1863 10.6439 56.2027 10.1257V10.1257ZM56.7579 13.6418C55.7586 13.9009 54.8333 14.4746 54.1671 15.2703C52.3906 17.38 52.4646 20.822 54.3707 22.8392C55.4995 24.042 57.2576 24.6342 58.8861 24.3011C60.3295 24.0235 61.6249 23.0612 62.3281 21.7658C63.531 19.5451 63.1794 16.5102 61.2918 14.7892C60.0889 13.6788 58.3309 13.2347 56.7579 13.6418Z" fill="#FCBD06"/>
<path d="M72.8393 11.1991C74.9675 9.86673 77.7989 9.49662 80.0936 10.644C80.8153 10.9586 81.4075 11.4952 81.9812 12.0319C81.9997 11.5322 81.9812 11.0141 81.9997 10.4959C83.2396 10.5144 84.4794 10.4959 85.7378 10.5144V26.8365C85.7193 29.2977 85.0901 31.9071 83.3136 33.7021C81.3705 35.6822 78.3911 36.2929 75.7077 35.8858C72.8393 35.4602 70.3411 33.369 69.2307 30.7227C70.3411 30.186 71.5069 29.7604 72.6543 29.2607C73.302 30.7782 74.6159 32.0736 76.2629 32.3697C77.9099 32.6658 79.816 32.2587 80.8893 30.8892C82.0367 29.4828 82.0367 27.5582 81.9812 25.8372C81.1299 26.6699 80.1491 27.4102 78.9647 27.6878C76.3924 28.4095 73.5611 27.5212 71.581 25.7817C69.5823 24.0421 68.398 21.3588 68.509 18.694C68.5645 15.6775 70.2671 12.7721 72.8393 11.1991V11.1991ZM76.67 13.5679C75.5412 13.7529 74.4864 14.3821 73.7646 15.2519C72.0251 17.3245 72.0251 20.6371 73.7831 22.6727C74.7824 23.8756 76.3924 24.5418 77.9469 24.3752C79.4089 24.2272 80.7598 23.3019 81.4815 22.025C82.7029 19.8598 82.4993 16.9174 80.8523 15.0298C79.8345 13.864 78.206 13.2903 76.67 13.5679V13.5679Z" fill="#3780FF"/>
<path d="M97.2854 12.143C99.5061 10.0704 102.93 9.36716 105.78 10.459C108.481 11.4768 110.202 14.0491 111.072 16.6954C107.056 18.3609 103.059 20.0079 99.0434 21.6735C99.5986 22.7283 100.45 23.6906 101.597 24.0792C103.207 24.6529 105.132 24.4493 106.483 23.376C107.019 22.9689 107.445 22.4322 107.852 21.914C108.87 22.5987 109.888 23.265 110.906 23.9497C109.462 26.1148 107.038 27.6323 104.429 27.8729C101.542 28.2245 98.4698 27.1141 96.6007 24.8564C93.5287 21.3033 93.8248 15.3445 97.2854 12.143V12.143ZM99.2655 15.5666C98.6363 16.4734 98.3772 17.5837 98.3957 18.6755C101.079 17.5652 103.762 16.4548 106.446 15.326C106.002 14.2897 104.928 13.6605 103.836 13.4939C102.078 13.1793 100.246 14.1231 99.2655 15.5666V15.5666Z" fill="#FA3913"/>
</g>
<defs>
<clipPath id="clip0_9_6656">
<rect width="110.294" height="36" fill="white" transform="translate(0.778076)"/>
</clipPath>
</defs>
</svg>
