<svg width="20" height="20" viewBox="0 0 20 20" fill="none" xmlns="http://www.w3.org/2000/svg">
<g clip-path="url(#clip0_2562_1273)">
<path d="M20 10.239C20 9.56511 19.9333 8.86946 19.8222 8.21729H10.2V12.0651H15.7111C15.4888 13.3042 14.7555 14.3912 13.6666 15.0869L16.9555 17.5869C18.8888 15.826 20 13.2608 20 10.239Z" fill="#4280EF"/>
<path d="M10.2 19.9783C12.9555 19.9783 15.2666 19.087 16.9555 17.5652L13.6666 15.087C12.7555 15.6957 11.5778 16.0435 10.2 16.0435C7.53331 16.0435 5.28887 14.2826 4.46664 11.9348L1.08887 14.4783C2.8222 17.8479 6.33331 19.9783 10.2 19.9783Z" fill="#34A353"/>
<path d="M4.46673 11.913C4.0445 10.6739 4.0445 9.32608 4.46673 8.08695L1.08895 5.52173C-0.355496 8.34782 -0.355496 11.6739 1.08895 14.4783L4.46673 11.913Z" fill="#F6B704"/>
<path d="M10.2 3.97814C11.6444 3.9564 13.0666 4.49988 14.1111 5.47814L17.0222 2.60858C15.1778 0.912924 12.7333 -0.000119482 10.2 0.0216196C6.33331 0.0216196 2.8222 2.15205 1.08887 5.52162L4.46664 8.08684C5.28887 5.71727 7.53331 3.97814 10.2 3.97814Z" fill="#E54335"/>
</g>
<defs>
<clipPath id="clip0_2562_1273">
<rect width="20" height="20" fill="white"/>
</clipPath>
</defs>
</svg>
