<svg width="512" height="122" viewBox="0 0 512 122" fill="none" xmlns="http://www.w3.org/2000/svg">
<g clip-path="url(#clip0_167_2997)">
<path d="M94.5511 56.298L113.234 96.8451C115.69 102.265 115.229 108.482 112 113.481C108.776 118.477 103.292 121.465 97.3391 121.465H1.54001C0.422034 121.465 -0.322533 120.31 0.138921 119.292L7.2403 103.621C7.48954 103.071 8.03754 102.718 8.64139 102.718H90.6133C92.8085 102.718 94.2707 100.45 93.3613 98.4554L81.6323 72.6338C81.3438 71.9889 80.7029 71.5763 79.9939 71.5763H42.7877C42.0826 71.5763 41.4457 71.9889 41.1613 72.6298L32.1682 92.651C31.8838 93.2879 31.2429 93.7005 30.5418 93.7005H14.4624C13.3468 93.7005 12.5509 92.712 12.6901 91.6865C12.7041 91.584 12.7394 91.4858 12.7822 91.3916L53.8199 0.832426C53.8772 0.705907 53.9487 0.584808 54.0495 0.48931C54.3754 0.180788 54.8116 0 55.2779 0H67.8882C68.5853 0 69.2262 0.408595 69.5146 1.04552L84.2961 33.6971C84.9531 35.1392 83.8955 36.7776 82.3092 36.7776H67.0911C66.2258 36.7776 65.4487 36.2688 65.0962 35.4837L63.0732 30.9451C62.4483 29.539 60.4494 29.535 59.8165 30.9451L50.6792 51.3107C50.1464 52.4925 51.0116 53.8264 52.3095 53.8264H90.6894C92.3519 53.8264 93.8581 54.7918 94.5511 56.298Z" fill="#3E8964"/>
<path d="M174.569 94.589H154.796L184.924 7.31627H208.703L238.788 94.589H219.015L197.154 27.2595H196.472L174.569 94.589ZM173.333 60.285H220.038V74.6884H173.333V60.285Z" fill="#0A0A0A"/>
<path d="M246.431 119.134V29.1345H264.329V40.1288H265.139C265.934 38.3674 267.085 36.5776 268.59 34.7595C270.124 32.9129 272.113 31.3788 274.556 30.1572C277.028 28.9072 280.096 28.2822 283.761 28.2822C288.533 28.2822 292.937 29.5322 296.971 32.0322C301.005 34.5038 304.229 38.2396 306.644 43.2396C309.059 48.2112 310.266 54.447 310.266 61.947C310.266 69.2481 309.087 75.4129 306.729 80.4413C304.4 85.4413 301.218 89.2339 297.184 91.8191C293.178 94.3759 288.69 95.6543 283.718 95.6543C280.195 95.6543 277.198 95.072 274.727 93.9072C272.283 92.7424 270.281 91.2793 268.718 89.518C267.156 87.7282 265.962 85.9242 265.139 84.106H264.585V119.134H246.431ZM264.201 61.8617C264.201 65.7538 264.741 69.1487 265.82 72.0464C266.9 74.9441 268.462 77.2026 270.508 78.822C272.553 80.4129 275.039 81.2083 277.965 81.2083C280.92 81.2083 283.42 80.3987 285.465 78.7793C287.511 77.1316 289.059 74.8589 290.11 71.9612C291.19 69.035 291.729 65.6685 291.729 61.8617C291.729 58.0833 291.204 54.7595 290.153 51.8901C289.102 49.0208 287.553 46.7765 285.508 45.1572C283.462 43.5379 280.948 42.7282 277.965 42.7282C275.011 42.7282 272.511 43.5095 270.465 45.072C268.448 46.6345 266.9 48.8504 265.82 51.7197C264.741 54.589 264.201 57.9697 264.201 61.8617Z" fill="#0A0A0A"/>
<path d="M367.533 32.4157C367.192 28.9782 365.729 26.3077 363.144 24.4043C360.559 22.5009 357.05 21.5492 352.619 21.5492C349.607 21.5492 347.065 21.9754 344.991 22.8276C342.917 23.6515 341.326 24.8021 340.218 26.2793C339.138 27.7566 338.599 29.4328 338.599 31.3078C338.542 32.8703 338.869 34.2339 339.579 35.3987C340.317 36.5634 341.326 37.572 342.604 38.4242C343.883 39.2481 345.36 39.9725 347.036 40.5975C348.712 41.1941 350.502 41.7055 352.405 42.1316L360.246 44.0066C364.053 44.8589 367.547 45.9952 370.729 47.4157C373.911 48.8362 376.667 50.5833 378.996 52.6572C381.326 54.731 383.13 57.1742 384.408 59.9867C385.715 62.7992 386.383 66.0237 386.411 69.66C386.383 75.0009 385.019 79.6316 382.32 83.5521C379.65 87.4441 375.786 90.4697 370.729 92.6288C365.701 94.7595 359.636 95.8248 352.533 95.8248C345.488 95.8248 339.351 94.7452 334.124 92.5862C328.925 90.4271 324.863 87.231 321.937 82.9981C319.039 78.7367 317.519 73.4668 317.377 67.1884H335.232C335.431 70.1146 336.269 72.5577 337.746 74.518C339.252 76.4498 341.255 77.9129 343.755 78.9072C346.283 79.8731 349.138 80.356 352.32 80.356C355.445 80.356 358.158 79.9015 360.459 78.9924C362.789 78.0833 364.593 76.8191 365.871 75.1998C367.15 73.5805 367.789 71.7197 367.789 69.6174C367.789 67.6572 367.207 66.0095 366.042 64.6742C364.905 63.339 363.229 62.2026 361.013 61.2651C358.826 60.3276 356.141 59.4754 352.959 58.7083L343.457 56.322C336.099 54.5322 330.289 51.7339 326.028 47.9271C321.766 44.1203 319.65 38.9924 319.678 32.5435C319.65 27.2595 321.056 22.643 323.897 18.6941C326.766 14.7453 330.701 11.6629 335.701 9.44695C340.701 7.23104 346.383 6.12309 352.746 6.12309C359.224 6.12309 364.877 7.23104 369.707 9.44695C374.565 11.6629 378.343 14.7453 381.042 18.6941C383.741 22.643 385.133 27.2168 385.218 32.4157H367.533Z" fill="#0A0A0A"/>
<path d="M412.41 75.7538L412.453 53.9782H415.095L436.061 29.1345H456.899L428.731 62.0322H424.427L412.41 75.7538ZM395.961 94.589V7.31627H414.115V94.589H395.961ZM436.871 94.589L417.609 66.0805L429.711 53.2538L458.135 94.589H436.871Z" fill="#0A0A0A"/>
<path d="M463.285 94.589V29.1345H481.439V94.589H463.285ZM472.405 20.697C469.706 20.697 467.39 19.8021 465.458 18.0123C463.555 16.1941 462.603 14.0208 462.603 11.4924C462.603 8.99241 463.555 6.84752 465.458 5.05775C467.39 3.23957 469.706 2.33047 472.405 2.33047C475.103 2.33047 477.405 3.23957 479.308 5.05775C481.24 6.84752 482.206 8.99241 482.206 11.4924C482.206 14.0208 481.24 16.1941 479.308 18.0123C477.405 19.8021 475.103 20.697 472.405 20.697Z" fill="#0A0A0A"/>
<path d="M511.614 7.31627V94.589H493.46V7.31627H511.614Z" fill="#0A0A0A"/>
</g>
<defs>
<clipPath id="clip0_167_2997">
<rect width="512" height="122" fill="white"/>
</clipPath>
</defs>
</svg>
