<svg width="48" height="36" viewBox="0 0 48 36" fill="none" xmlns="http://www.w3.org/2000/svg">
<path d="M0 36V25.6999C0 22.7377 0.5554 19.6578 1.6662 16.46C2.81066 13.2286 4.35905 10.1823 6.31136 7.32118C8.29733 4.42637 10.5189 1.98598 12.9762 0L21.4586 5.5035C19.4726 8.4993 17.8064 11.6297 16.46 14.8948C15.1473 18.1262 14.5077 21.6942 14.5414 25.5989V36H0ZM25.5989 36V25.6999C25.5989 22.7377 26.1543 19.6578 27.2651 16.46C28.4095 13.2286 29.9579 10.1823 31.9102 7.32118C33.8962 4.42637 36.1178 1.98598 38.575 0L47.0575 5.5035C45.0715 8.4993 43.4053 11.6297 42.0589 14.8948C40.7461 18.1262 40.1066 21.6942 40.1402 25.5989V36H25.5989Z" fill="#3E8964"/>
</svg>
